<?xml version="1.0" standalone="no"?>
<svg xmlns:xlink="http://www.w3.org/1999/xlink" id="wave" style="transform:rotate(0deg); transition: 0.3s" viewBox="0 0 1440 490" version="1.1" xmlns="http://www.w3.org/2000/svg"><defs><linearGradient id="sw-gradient-0" x1="0" x2="0" y1="1" y2="0"><stop stop-color="rgba(243, 106, 62, 0.25)" offset="0%"/><stop stop-color="rgba(255, 179, 11, 0.22)" offset="100%"/></linearGradient></defs><path style="transform:translate(0, 0px); opacity:1" fill="url(#sw-gradient-0)" d="M0,294L26.7,302.2C53.3,310,107,327,160,334.8C213.3,343,267,343,320,310.3C373.3,278,427,212,480,163.3C533.3,114,587,82,640,81.7C693.3,82,747,114,800,155.2C853.3,196,907,245,960,245C1013.3,245,1067,196,1120,155.2C1173.3,114,1227,82,1280,122.5C1333.3,163,1387,278,1440,343C1493.3,408,1547,425,1600,432.8C1653.3,441,1707,441,1760,408.3C1813.3,376,1867,310,1920,245C1973.3,180,2027,114,2080,114.3C2133.3,114,2187,180,2240,204.2C2293.3,229,2347,212,2400,187.8C2453.3,163,2507,131,2560,122.5C2613.3,114,2667,131,2720,163.3C2773.3,196,2827,245,2880,253.2C2933.3,261,2987,229,3040,228.7C3093.3,229,3147,261,3200,285.8C3253.3,310,3307,327,3360,343C3413.3,359,3467,376,3520,351.2C3573.3,327,3627,261,3680,236.8C3733.3,212,3787,229,3813,236.8L3840,245L3840,490L3813.3,490C3786.7,490,3733,490,3680,490C3626.7,490,3573,490,3520,490C3466.7,490,3413,490,3360,490C3306.7,490,3253,490,3200,490C3146.7,490,3093,490,3040,490C2986.7,490,2933,490,2880,490C2826.7,490,2773,490,2720,490C2666.7,490,2613,490,2560,490C2506.7,490,2453,490,2400,490C2346.7,490,2293,490,2240,490C2186.7,490,2133,490,2080,490C2026.7,490,1973,490,1920,490C1866.7,490,1813,490,1760,490C1706.7,490,1653,490,1600,490C1546.7,490,1493,490,1440,490C1386.7,490,1333,490,1280,490C1226.7,490,1173,490,1120,490C1066.7,490,1013,490,960,490C906.7,490,853,490,800,490C746.7,490,693,490,640,490C586.7,490,533,490,480,490C426.7,490,373,490,320,490C266.7,490,213,490,160,490C106.7,490,53,490,27,490L0,490Z"/></svg>