<?xml version="1.0" standalone="no"?>
<svg xmlns:xlink="http://www.w3.org/1999/xlink" id="wave" style="transform:rotate(0deg); transition: 0.3s" viewBox="0 0 1440 490" version="1.1" xmlns="http://www.w3.org/2000/svg"><defs><linearGradient id="sw-gradient-0" x1="0" x2="0" y1="1" y2="0"><stop stop-color="rgba(243, 106, 62, 1)" offset="0%"/><stop stop-color="rgba(255, 179, 11, 1)" offset="100%"/></linearGradient></defs><path style="transform:translate(0, 0px); opacity:1" fill="url(#sw-gradient-0)" d="M0,0L26.7,73.5C53.3,147,107,294,160,343C213.3,392,267,343,320,343C373.3,343,427,392,480,400.2C533.3,408,587,376,640,318.5C693.3,261,747,180,800,122.5C853.3,65,907,33,960,16.3C1013.3,0,1067,0,1120,49C1173.3,98,1227,196,1280,269.5C1333.3,343,1387,392,1440,383.8C1493.3,376,1547,310,1600,285.8C1653.3,261,1707,278,1760,253.2C1813.3,229,1867,163,1920,155.2C1973.3,147,2027,196,2080,228.7C2133.3,261,2187,278,2240,302.2C2293.3,327,2347,359,2400,375.7C2453.3,392,2507,392,2560,334.8C2613.3,278,2667,163,2720,163.3C2773.3,163,2827,278,2880,310.3C2933.3,343,2987,294,3040,236.8C3093.3,180,3147,114,3200,106.2C3253.3,98,3307,147,3360,155.2C3413.3,163,3467,131,3520,147C3573.3,163,3627,229,3680,212.3C3733.3,196,3787,98,3813,49L3840,0L3840,490L3813.3,490C3786.7,490,3733,490,3680,490C3626.7,490,3573,490,3520,490C3466.7,490,3413,490,3360,490C3306.7,490,3253,490,3200,490C3146.7,490,3093,490,3040,490C2986.7,490,2933,490,2880,490C2826.7,490,2773,490,2720,490C2666.7,490,2613,490,2560,490C2506.7,490,2453,490,2400,490C2346.7,490,2293,490,2240,490C2186.7,490,2133,490,2080,490C2026.7,490,1973,490,1920,490C1866.7,490,1813,490,1760,490C1706.7,490,1653,490,1600,490C1546.7,490,1493,490,1440,490C1386.7,490,1333,490,1280,490C1226.7,490,1173,490,1120,490C1066.7,490,1013,490,960,490C906.7,490,853,490,800,490C746.7,490,693,490,640,490C586.7,490,533,490,480,490C426.7,490,373,490,320,490C266.7,490,213,490,160,490C106.7,490,53,490,27,490L0,490Z"/></svg>