<svg width="80" height="80" viewBox="0 0 80 80" fill="none" xmlns="http://www.w3.org/2000/svg">
<rect width="80" height="80" rx="40" fill="#23314E"/>
<path d="M23.9126 55.5984C23.7477 56.0947 23.703 56.623 23.7822 57.1399C23.8614 57.6568 24.0622 58.1474 24.3682 58.5715C24.6741 58.9956 25.0763 59.3411 25.5418 59.5792C26.0073 59.8175 26.5227 59.9417 27.0456 59.9418H52.9565C53.4793 59.9417 53.9947 59.8175 54.4601 59.5792C54.9255 59.3411 55.3277 58.9957 55.6337 58.5717C55.9395 58.1477 56.1404 57.6572 56.2196 57.1403C56.2989 56.6235 56.2543 56.0953 56.0895 55.5991L53.6505 48.2801C53.4791 47.78 53.2704 47.2934 53.0261 46.8245L53.2036 46.1494C53.2802 45.8582 53.2889 45.5535 53.2291 45.2585C53.1694 44.9636 53.0428 44.6862 52.8591 44.4479C52.6753 44.2095 52.4393 44.0166 52.1692 43.8837C51.8992 43.7509 51.6022 43.6817 51.3012 43.6817H50.5773C48.6611 42.0056 46.2022 41.0814 43.6563 41.0801H43.2531V40.6092C44.426 39.9948 45.4211 39.089 46.1429 37.9789C46.5155 37.1646 46.7526 36.2948 46.8446 35.404C47.3082 35.2727 47.7164 34.9938 48.0072 34.6097C48.2981 34.2255 48.4557 33.7571 48.4563 33.2752V29.3728C48.4563 27.1303 47.5655 24.9796 45.9798 23.394C44.3942 21.8083 42.2435 20.9175 40.0011 20.9175C37.7586 20.9175 35.6079 21.8083 34.0223 23.394C32.4366 24.9796 31.5458 27.1303 31.5458 29.3728V33.2752C31.5464 33.7571 31.704 34.2255 31.9949 34.6097C32.2857 34.9938 32.6939 35.2727 33.1575 35.404C33.2495 36.2949 33.4868 37.1648 33.8599 37.9789C34.5814 39.089 35.5763 39.9948 36.749 40.6092V41.0801H36.3458C33.8 41.0814 31.341 42.0056 29.4248 43.6817H28.7009C28.3999 43.6816 28.1029 43.7507 27.8327 43.8835C27.5626 44.0163 27.3265 44.2093 27.1427 44.4477C26.9589 44.686 26.8322 44.9634 26.7724 45.2584C26.7126 45.5535 26.7213 45.8582 26.7978 46.1494L26.976 46.8252C26.7313 47.2944 26.5221 47.7815 26.3504 48.282L23.9126 55.5984ZM29.5946 58.6411V57.3403H50.4075V58.6411H29.5946ZM54.8563 56.0115C54.9556 56.3121 54.9822 56.6321 54.9338 56.945C54.8854 57.2578 54.7635 57.5548 54.5781 57.8115C54.3926 58.0682 54.149 58.2772 53.8672 58.4214C53.5852 58.5656 53.2732 58.6409 52.9565 58.6411H51.7084V57.3403C51.7072 57.0287 51.5942 56.728 51.3899 56.4927C51.1857 56.2575 50.9038 56.1033 50.5955 56.0583L52.4817 48.8882L54.8563 56.0115ZM48.3724 43.6817H42.5838C42.8795 43.2988 43.0851 42.8541 43.1855 42.3809H43.6544C45.3155 42.3815 46.9457 42.831 48.3724 43.6817ZM40.0011 22.2183C41.8979 22.2205 43.7163 22.975 45.0576 24.3163C46.3989 25.6575 47.1533 27.476 47.1555 29.3728V31.2589C47.0534 31.2117 46.9477 31.1725 46.8394 31.1418C46.7228 30.533 46.413 29.9778 45.9561 29.5587C45.4993 29.1395 44.9195 28.8787 44.3029 28.8147C43.0085 28.6423 41.7774 28.1506 40.7204 27.3838C40.5094 27.2388 40.2594 27.1611 40.0033 27.1611C39.7473 27.1611 39.4973 27.2388 39.2863 27.3838C38.2397 28.1565 37.0131 28.6491 35.7227 28.8147C35.1007 28.8717 34.5144 29.13 34.0524 29.5503C33.5904 29.9705 33.2781 30.53 33.1627 31.1438C33.0551 31.1742 32.95 31.2132 32.8486 31.2603V29.3728C32.8508 27.4763 33.605 25.6581 34.9459 24.317C36.2867 22.9758 38.1046 22.2211 40.0011 22.2183ZM35.0202 37.391C34.6684 36.57 34.4609 35.6945 34.407 34.803C34.3985 34.6363 34.3262 34.4793 34.2051 34.3644C34.084 34.2495 33.9234 34.1855 33.7565 34.1857C33.5151 34.1857 33.2834 34.0898 33.1127 33.9191C32.9419 33.7483 32.846 33.5167 32.846 33.2752C32.846 33.0337 32.9419 32.8021 33.1127 32.6313C33.2834 32.4606 33.5151 32.3647 33.7565 32.3647C33.929 32.3647 34.0945 32.2961 34.2164 32.1741C34.3384 32.0522 34.407 31.8867 34.407 31.7142C34.4055 31.3176 34.551 30.9346 34.8152 30.6388C35.0793 30.343 35.4436 30.1555 35.8378 30.1123C37.3366 29.9254 38.7618 29.355 39.9757 28.4563C41.2158 29.3556 42.6635 29.926 44.1838 30.1142C44.5755 30.1584 44.9369 30.3466 45.1976 30.6423C45.4583 30.938 45.5998 31.3201 45.5946 31.7142C45.5946 31.8867 45.6631 32.0522 45.7851 32.1741C45.9071 32.2961 46.0725 32.3647 46.245 32.3647C46.4865 32.3647 46.7181 32.4606 46.8888 32.6313C47.0596 32.8021 47.1555 33.0337 47.1555 33.2752C47.1555 33.5167 47.0596 33.7483 46.8888 33.9191C46.7181 34.0898 46.4865 34.1857 46.245 34.1857C46.0781 34.1855 45.9175 34.2495 45.7964 34.3644C45.6753 34.4793 45.6031 34.6363 45.5946 34.803C45.5406 35.6944 45.3333 36.5699 44.9819 37.391C44.349 38.6404 41.4157 40.4296 40.0011 40.4296C38.5865 40.4296 35.6531 38.6404 35.0202 37.391ZM40.0011 41.7305C40.6752 41.6954 41.337 41.5348 41.9523 41.257V41.7305C41.9523 42.248 41.7468 42.7443 41.3808 43.1102C41.0149 43.4761 40.5186 43.6817 40.0011 43.6817C39.4835 43.6817 38.9872 43.4761 38.6214 43.1102C38.2554 42.7443 38.0499 42.248 38.0499 41.7305V41.257C38.6651 41.5348 39.3269 41.6954 40.0011 41.7305ZM36.3458 42.3809H36.8141C36.9145 42.8541 37.12 43.2988 37.4157 43.6817H31.6271C33.0541 42.8309 34.6844 42.3815 36.3458 42.3809ZM28.1728 45.2427C28.2349 45.1616 28.3148 45.096 28.4064 45.0509C28.498 45.0057 28.5988 44.9823 28.7009 44.9825H51.3012C51.4032 44.9824 51.5037 45.0058 51.5952 45.0507C51.6867 45.0956 51.7666 45.161 51.8288 45.2416C51.8912 45.3222 51.9341 45.4162 51.9543 45.516C51.9746 45.6159 51.9716 45.7191 51.9458 45.8176L49.2557 56.0394H30.7464L28.0564 45.8176C28.0303 45.7193 28.0272 45.6163 28.0474 45.5166C28.0676 45.4169 28.1105 45.3231 28.1728 45.2427ZM29.4086 56.0589C29.1 56.1035 28.8178 56.2574 28.6132 56.4926C28.4086 56.7277 28.2952 57.0286 28.2938 57.3403V58.6411H27.0456C26.7289 58.6409 26.4168 58.5656 26.1348 58.4214C25.8529 58.2772 25.6092 58.0681 25.4237 57.8113C25.2383 57.5546 25.1164 57.2575 25.0681 56.9445C25.0198 56.6315 25.0464 56.3115 25.1458 56.0108L27.5191 48.8882L29.4086 56.0589Z" fill="white"/>
<path d="M40 54.0881C41.7932 54.0881 43.2521 52.9213 43.2521 51.4864C43.2521 50.0516 41.7932 48.8848 40 48.8848C38.2069 48.8848 36.748 50.0516 36.748 51.4864C36.748 52.9213 38.2069 54.0881 40 54.0881ZM40 50.1856C41.0576 50.1856 41.9513 50.7814 41.9513 51.4864C41.9513 52.1915 41.0576 52.7872 40 52.7872C38.9425 52.7872 38.0488 52.1915 38.0488 51.4864C38.0488 50.7814 38.9425 50.1856 40 50.1856Z" fill="white"/>
</svg>
